<?xml version="1.0" standalone="no"?>
<!DOCTYPE svg PUBLIC "-//W3C//DTD SVG 20010904//EN"
 "http://www.w3.org/TR/2001/REC-SVG-20010904/DTD/svg10.dtd">
<svg version="1.0" xmlns="http://www.w3.org/2000/svg"
 width="977.000000pt" height="550.000000pt" viewBox="0 0 977.000000 550.000000"
 preserveAspectRatio="xMidYMid meet">

<g transform="translate(0.000000,550.000000) scale(0.100000,-0.100000)"
fill="#000000" stroke="none">
<path d="M2700 3305 c0 -140 2 -165 15 -165 12 0 15 15 15 74 0 69 2 76 26 95
33 26 46 26 67 3 13 -14 17 -38 17 -96 0 -68 2 -77 18 -74 14 3 17 16 20 78 2
86 -10 120 -51 134 -20 7 -36 6 -62 -7 l-35 -17 0 70 c0 56 -3 70 -15 70 -13
0 -15 -25 -15 -165z"/>
<path d="M3391 3451 c-13 -13 -21 -34 -21 -56 0 -28 -4 -35 -20 -35 -11 0 -20
-7 -20 -15 0 -8 9 -15 20 -15 19 0 20 -7 20 -95 0 -78 3 -95 15 -95 12 0 15
17 15 95 l0 95 30 0 c20 0 30 5 30 15 0 10 -10 15 -30 15 -33 0 -37 11 -20 55
8 22 15 26 36 22 19 -3 24 -1 22 12 -5 25 -53 26 -77 2z"/>
<path d="M3510 3305 c0 -140 2 -165 15 -165 13 0 15 25 15 165 0 140 -2 165
-15 165 -13 0 -15 -25 -15 -165z"/>
<path d="M4540 3400 l0 -71 -22 15 c-51 36 -111 10 -129 -56 -27 -102 54 -185
129 -132 20 14 22 14 22 -1 0 -10 7 -15 18 -13 15 3 17 19 17 163 0 144 -2
160 -17 163 -16 3 -18 -5 -18 -68z m-26 -91 c23 -18 27 -28 24 -62 -6 -84 -98
-103 -113 -23 -8 39 -1 69 21 91 21 20 36 19 68 -6z"/>
<path d="M2437 3433 c-17 -16 -3 -23 43 -23 l50 0 0 -136 c0 -124 2 -135 18
-132 15 3 17 19 20 136 l3 132 44 0 c33 0 45 4 45 15 0 12 -19 15 -108 15 -60
0 -112 -3 -115 -7z"/>
<path d="M2942 3423 c2 -10 12 -18 23 -18 11 0 21 8 23 18 3 13 -3 17 -23 17
-20 0 -26 -4 -23 -17z"/>
<path d="M6652 3423 c2 -10 12 -18 23 -18 11 0 21 8 23 18 3 13 -3 17 -23 17
-20 0 -26 -4 -23 -17z"/>
<path d="M5950 3390 c0 -23 -4 -30 -20 -30 -11 0 -20 -7 -20 -15 0 -8 9 -15
20 -15 18 0 20 -7 20 -85 0 -75 2 -86 21 -95 28 -16 63 -9 67 13 3 15 0 18
-16 12 -29 -9 -42 21 -42 94 l0 61 30 0 c20 0 30 5 30 15 0 10 -10 15 -30 15
-27 0 -30 3 -30 30 0 20 -5 30 -15 30 -10 0 -15 -10 -15 -30z"/>
<path d="M6970 3390 c0 -23 -4 -30 -20 -30 -11 0 -20 -7 -20 -15 0 -8 9 -15
20 -15 18 0 20 -7 20 -85 0 -75 2 -86 21 -95 28 -16 63 -9 67 13 3 15 0 18
-16 12 -29 -9 -42 21 -42 94 l0 61 30 0 c20 0 30 5 30 15 0 10 -10 15 -30 15
-27 0 -30 3 -30 30 0 20 -5 30 -15 30 -10 0 -15 -10 -15 -30z"/>
<path d="M2950 3250 c0 -91 3 -110 15 -110 12 0 15 19 15 110 0 91 -3 110 -15
110 -12 0 -15 -19 -15 -110z"/>
<path d="M3072 3344 c-17 -12 -22 -24 -20 -47 3 -27 11 -36 51 -56 31 -15 47
-29 47 -42 0 -24 -43 -35 -76 -20 -32 14 -34 14 -34 -4 0 -40 89 -47 125 -10
41 40 30 68 -37 100 -29 14 -43 27 -43 40 0 17 7 20 48 19 30 0 47 4 47 12 0
27 -73 33 -108 8z"/>
<path d="M3641 3334 c-77 -70 -36 -194 65 -194 63 0 104 47 104 120 0 56 -33
90 -91 97 -40 5 -50 2 -78 -23z m117 -31 c6 -9 12 -33 12 -53 0 -44 -16 -67
-52 -75 -36 -9 -78 31 -78 75 0 44 42 84 78 75 15 -3 33 -13 40 -22z"/>
<path d="M3891 3334 c-77 -70 -36 -194 65 -194 63 0 104 47 104 120 0 56 -33
90 -91 97 -40 5 -50 2 -78 -23z m117 -31 c6 -9 12 -33 12 -53 0 -44 -16 -67
-52 -75 -36 -9 -78 31 -78 75 0 44 42 84 78 75 15 -3 33 -13 40 -22z"/>
<path d="M4120 3250 c0 -91 3 -110 15 -110 12 0 15 14 15 70 0 62 3 74 25 96
17 17 32 23 45 19 14 -5 20 -2 20 10 0 24 -30 30 -62 12 -24 -14 -28 -14 -28
-2 0 8 -7 15 -15 15 -12 0 -15 -19 -15 -110z"/>
<path d="M4671 3334 c-77 -70 -36 -194 65 -194 63 0 104 47 104 120 0 56 -33
90 -91 97 -40 5 -50 2 -78 -23z m117 -31 c6 -9 12 -33 12 -53 0 -44 -16 -67
-52 -75 -36 -9 -78 31 -78 75 0 44 42 84 78 75 15 -3 33 -13 40 -22z"/>
<path d="M4933 3348 c-24 -12 -53 -64 -53 -97 0 -42 27 -87 59 -101 37 -15 98
-8 120 14 20 21 9 29 -23 16 -41 -15 -74 -12 -96 10 -39 39 -27 50 54 50 41 0
77 4 80 8 10 16 -15 81 -37 97 -25 17 -72 19 -104 3z m91 -40 c9 -12 16 -26
16 -30 0 -5 -27 -8 -60 -8 -64 0 -72 8 -40 40 27 27 65 26 84 -2z"/>
<path d="M5152 3344 c-17 -12 -22 -24 -20 -47 3 -27 11 -36 51 -56 31 -15 47
-29 47 -42 0 -24 -43 -35 -76 -20 -32 14 -34 14 -34 -4 0 -40 89 -47 125 -10
41 40 30 68 -37 100 -29 14 -43 27 -43 40 0 17 7 20 48 19 30 0 47 4 47 12 0
27 -73 33 -108 8z"/>
<path d="M5440 3250 c0 -91 3 -110 15 -110 12 0 15 15 15 74 0 69 2 76 26 95
33 26 46 26 67 3 13 -14 17 -38 17 -96 0 -68 2 -77 18 -74 14 3 17 16 20 78 2
86 -10 120 -51 134 -20 7 -36 6 -62 -7 -30 -14 -35 -15 -35 -2 0 8 -7 15 -15
15 -12 0 -15 -19 -15 -110z"/>
<path d="M5711 3334 c-77 -70 -36 -194 65 -194 63 0 104 47 104 120 0 56 -33
90 -91 97 -40 5 -50 2 -78 -23z m117 -31 c6 -9 12 -33 12 -53 0 -44 -16 -67
-52 -75 -36 -9 -78 31 -78 75 0 44 42 84 78 75 15 -3 33 -13 40 -22z"/>
<path d="M6243 3348 c-24 -12 -53 -64 -53 -97 0 -42 27 -87 59 -101 37 -15 98
-8 120 14 20 21 9 29 -23 16 -41 -15 -74 -12 -96 10 -39 39 -27 50 54 50 41 0
77 4 80 8 10 16 -15 81 -37 97 -25 17 -72 19 -104 3z m91 -40 c9 -12 16 -26
16 -30 0 -5 -27 -8 -60 -8 -64 0 -72 8 -40 40 27 27 65 26 84 -2z"/>
<path d="M6430 3352 c0 -4 13 -29 29 -54 l29 -46 -19 -28 c-11 -16 -27 -41
-35 -56 -14 -26 -13 -28 5 -28 13 0 29 14 43 40 13 22 26 40 29 40 4 0 18 -18
33 -40 16 -25 34 -40 47 -40 22 0 22 1 -23 68 l-30 43 31 48 c35 54 37 61 16
61 -8 0 -27 -18 -42 -41 l-27 -41 -18 24 c-10 13 -20 31 -24 41 -5 17 -44 25
-44 9z"/>
<path d="M6660 3250 c0 -91 3 -110 15 -110 12 0 15 19 15 110 0 91 -3 110 -15
110 -12 0 -15 -19 -15 -110z"/>
<path d="M6782 3344 c-17 -12 -22 -24 -20 -47 3 -27 11 -36 51 -56 31 -15 47
-29 47 -42 0 -24 -43 -35 -76 -20 -32 14 -34 14 -34 -4 0 -40 89 -47 125 -10
41 40 30 68 -37 100 -29 14 -43 27 -43 40 0 17 7 20 48 19 30 0 47 4 47 12 0
27 -73 33 -108 8z"/>
<path d="M7120 3165 c0 -18 5 -25 20 -25 15 0 20 7 20 25 0 18 -5 25 -20 25
-15 0 -20 -7 -20 -25z"/>
<path d="M2720 2715 c0 -140 2 -165 15 -165 13 0 15 25 15 165 0 140 -2 165
-15 165 -13 0 -15 -25 -15 -165z"/>
<path d="M4270 2715 c0 -140 2 -165 15 -165 13 0 15 25 15 165 0 140 -2 165
-15 165 -13 0 -15 -25 -15 -165z"/>
<path d="M2477 2843 c-4 -3 -7 -71 -7 -150 0 -136 1 -143 20 -143 18 0 20 7
20 60 l0 60 35 0 c53 0 91 24 105 65 14 42 -2 83 -40 102 -26 13 -122 18 -133
6z m108 -35 c19 -9 25 -19 25 -44 0 -38 -29 -64 -72 -64 -28 0 -28 1 -28 60 0
57 1 60 25 60 13 0 36 -5 50 -12z"/>
<path d="M5772 2833 c2 -10 12 -18 23 -18 11 0 21 8 23 18 3 13 -3 17 -23 17
-20 0 -26 -4 -23 -17z"/>
<path d="M4830 2800 c0 -23 -4 -30 -20 -30 -11 0 -20 -7 -20 -15 0 -8 9 -15
20 -15 18 0 20 -7 20 -85 0 -75 2 -86 21 -95 28 -16 63 -9 67 13 3 15 0 18
-16 12 -29 -9 -42 21 -42 94 l0 61 30 0 c20 0 30 5 30 15 0 10 -10 15 -30 15
-27 0 -30 3 -30 30 0 20 -5 30 -15 30 -10 0 -15 -10 -15 -30z"/>
<path d="M2863 2758 c-24 -12 -53 -64 -53 -97 0 -42 27 -87 59 -101 37 -15 98
-8 120 14 20 21 9 29 -23 16 -41 -15 -74 -12 -96 10 -39 39 -27 50 54 50 41 0
77 4 80 8 10 16 -15 81 -37 97 -25 17 -72 19 -104 3z m91 -40 c9 -12 16 -26
16 -30 0 -5 -27 -8 -60 -8 -64 0 -72 8 -40 40 27 27 65 26 84 -2z"/>
<path d="M3083 2760 c-13 -5 -23 -17 -23 -26 0 -11 5 -14 18 -9 42 17 79 17
95 0 28 -27 21 -45 -17 -45 -77 0 -121 -43 -98 -95 14 -30 53 -41 98 -27 19 6
34 6 34 1 0 -5 7 -9 15 -9 12 0 15 17 15 94 0 87 -2 96 -22 110 -24 17 -80 20
-115 6z m107 -128 c0 -46 -70 -68 -94 -29 -15 24 15 47 61 47 25 0 33 -4 33
-18z"/>
<path d="M3312 2754 c-17 -12 -22 -24 -20 -47 3 -27 11 -36 51 -56 31 -15 47
-29 47 -42 0 -24 -43 -35 -76 -20 -32 14 -34 14 -34 -4 0 -40 89 -47 125 -10
41 40 30 68 -37 100 -29 14 -43 27 -43 40 0 17 7 20 48 19 30 0 47 4 47 12 0
27 -73 33 -108 8z"/>
<path d="M3523 2758 c-24 -12 -53 -64 -53 -97 0 -42 27 -87 59 -101 37 -15 98
-8 120 14 20 21 9 29 -23 16 -41 -15 -74 -12 -96 10 -39 39 -27 50 54 50 41 0
77 4 80 8 10 16 -15 81 -37 97 -25 17 -72 19 -104 3z m91 -40 c9 -12 16 -26
16 -30 0 -5 -27 -8 -60 -8 -64 0 -72 8 -40 40 27 27 65 26 84 -2z"/>
<path d="M3852 2754 c-17 -12 -22 -24 -20 -47 3 -27 11 -36 51 -56 31 -15 47
-29 47 -42 0 -24 -43 -35 -76 -20 -32 14 -34 14 -34 -4 0 -40 89 -47 125 -10
41 40 30 68 -37 100 -29 14 -43 27 -43 40 0 17 7 20 48 19 30 0 47 4 47 12 0
27 -73 33 -108 8z"/>
<path d="M4063 2758 c-24 -12 -53 -64 -53 -97 0 -42 27 -87 59 -101 37 -15 98
-8 120 14 20 21 9 29 -23 16 -41 -15 -74 -12 -96 10 -39 39 -27 50 54 50 41 0
77 4 80 8 10 16 -15 81 -37 97 -25 17 -72 19 -104 3z m91 -40 c9 -12 16 -26
16 -30 0 -5 -27 -8 -60 -8 -64 0 -72 8 -40 40 27 27 65 26 84 -2z"/>
<path d="M4413 2758 c-24 -12 -53 -64 -53 -97 0 -42 27 -87 59 -101 37 -15 98
-8 120 14 20 21 9 29 -23 16 -41 -15 -74 -12 -96 10 -39 39 -27 50 54 50 41 0
77 4 80 8 10 16 -15 81 -37 97 -25 17 -72 19 -104 3z m91 -40 c9 -12 16 -26
16 -30 0 -5 -27 -8 -60 -8 -64 0 -72 8 -40 40 27 27 65 26 84 -2z"/>
<path d="M4652 2760 c-56 -23 -67 -144 -17 -187 38 -33 117 -26 131 12 10 24
0 27 -33 10 -62 -31 -103 12 -89 91 9 44 44 61 88 43 32 -13 41 -9 33 14 -10
26 -69 34 -113 17z"/>
<path d="M5103 2760 c-13 -5 -23 -17 -23 -26 0 -11 5 -14 18 -9 42 17 79 17
95 0 28 -27 21 -45 -17 -45 -77 0 -121 -43 -98 -95 14 -30 53 -41 98 -27 19 6
34 6 34 1 0 -5 7 -9 15 -9 12 0 15 17 15 94 0 87 -2 96 -22 110 -24 17 -80 20
-115 6z m107 -128 c0 -46 -70 -68 -94 -29 -15 24 15 47 61 47 25 0 33 -4 33
-18z"/>
<path d="M5342 2758 c-25 -13 -37 -45 -29 -85 3 -15 0 -35 -6 -45 -9 -13 -9
-23 -1 -36 8 -13 8 -22 -3 -39 -33 -49 20 -90 104 -80 49 5 83 32 83 67 0 29
-27 43 -93 49 -46 4 -62 10 -62 21 0 11 10 14 42 12 35 -3 47 1 69 23 22 22
25 33 21 61 -4 25 -2 34 9 34 8 0 14 7 14 15 0 12 -13 15 -62 14 -35 0 -73 -5
-86 -11z m76 -30 c30 -30 3 -83 -39 -76 -32 5 -45 31 -31 62 13 28 49 35 70
14z m22 -178 c22 -14 0 -44 -35 -48 -60 -7 -93 16 -63 46 14 14 77 16 98 2z"/>
<path d="M5563 2760 c-13 -5 -23 -17 -23 -26 0 -11 5 -14 18 -9 42 17 79 17
95 0 28 -27 21 -45 -17 -45 -77 0 -121 -43 -98 -95 14 -30 53 -41 98 -27 19 6
34 6 34 1 0 -5 7 -9 15 -9 12 0 15 17 15 94 0 87 -2 96 -22 110 -24 17 -80 20
-115 6z m107 -128 c0 -46 -70 -68 -94 -29 -15 24 15 47 61 47 25 0 33 -4 33
-18z"/>
<path d="M5780 2660 c0 -91 3 -110 15 -110 12 0 15 19 15 110 0 91 -3 110 -15
110 -12 0 -15 -19 -15 -110z"/>
<path d="M5890 2660 c0 -91 3 -110 15 -110 12 0 15 15 15 74 0 69 2 76 26 95
33 26 46 26 67 3 13 -14 17 -38 17 -96 0 -68 2 -77 18 -74 14 3 17 16 20 78 2
86 -10 120 -51 134 -20 7 -36 6 -62 -7 -30 -14 -35 -15 -35 -2 0 8 -7 15 -15
15 -12 0 -15 -19 -15 -110z"/>
<path d="M6140 2575 c0 -18 5 -25 20 -25 15 0 20 7 20 25 0 18 -5 25 -20 25
-15 0 -20 -7 -20 -25z"/>
</g>
</svg>
