<?xml version="1.0" standalone="no"?>
<!DOCTYPE svg PUBLIC "-//W3C//DTD SVG 20010904//EN"
 "http://www.w3.org/TR/2001/REC-SVG-20010904/DTD/svg10.dtd">
<svg version="1.0" xmlns="http://www.w3.org/2000/svg"
 width="977.000000pt" height="550.000000pt" viewBox="0 0 977.000000 550.000000"
 preserveAspectRatio="xMidYMid meet">

<g transform="translate(0.000000,550.000000) scale(0.100000,-0.100000)"
fill="#000000" stroke="none">
<path d="M2520 3455 c0 -158 1 -165 20 -165 18 0 20 7 20 79 0 71 2 82 22 95
55 39 78 11 78 -98 0 -69 2 -76 20 -76 18 0 20 7 20 84 0 69 -4 88 -21 110
-24 30 -63 34 -97 10 l-22 -15 0 70 c0 64 -2 71 -20 71 -19 0 -20 -7 -20 -165z"/>
<path d="M3157 3608 c-10 -8 -21 -32 -24 -56 -4 -32 -10 -42 -24 -42 -11 0
-19 -7 -19 -15 0 -8 9 -15 20 -15 19 0 20 -7 20 -95 0 -88 1 -95 20 -95 19 0
20 7 20 95 0 95 0 95 25 95 16 0 25 6 25 15 0 9 -9 15 -25 15 -21 0 -25 5 -25
28 0 40 14 56 44 50 21 -4 26 -2 24 11 -4 21 -57 26 -81 9z"/>
<path d="M3270 3455 c0 -158 1 -165 20 -165 19 0 20 7 20 165 0 158 -1 165
-20 165 -19 0 -20 -7 -20 -165z"/>
<path d="M2260 3575 c0 -11 12 -15 45 -15 l45 0 0 -135 c0 -128 1 -135 20
-135 19 0 20 7 20 135 l0 135 45 0 c33 0 45 4 45 15 0 12 -19 15 -110 15 -91
0 -110 -3 -110 -15z"/>
<path d="M5130 3570 c0 -15 7 -20 25 -20 18 0 25 5 25 20 0 15 -7 20 -25 20
-18 0 -25 -5 -25 -20z"/>
<path d="M6050 3540 c0 -23 -4 -30 -20 -30 -11 0 -20 -7 -20 -15 0 -8 9 -15
20 -15 18 0 20 -7 20 -78 0 -90 16 -116 67 -110 38 4 44 34 6 33 l-28 0 -3 78
-3 77 31 0 c20 0 30 5 30 15 0 10 -10 15 -30 15 -27 0 -30 3 -30 30 0 23 -4
30 -20 30 -16 0 -20 -7 -20 -30z"/>
<path d="M7660 3540 c0 -23 -4 -30 -20 -30 -11 0 -20 -7 -20 -15 0 -8 9 -15
20 -15 18 0 20 -7 20 -78 0 -90 16 -116 67 -110 38 4 44 34 6 33 l-28 0 -3 78
-3 77 31 0 c20 0 30 5 30 15 0 10 -10 15 -30 15 -27 0 -30 3 -30 30 0 23 -4
30 -20 30 -16 0 -20 -7 -20 -30z"/>
<path d="M2803 3500 c-58 -24 -70 -143 -18 -187 41 -35 145 -26 145 13 0 12
-5 14 -17 9 -43 -19 -81 -17 -102 4 -40 40 -29 51 54 51 73 0 75 1 75 25 0 73
-65 114 -137 85z m81 -36 c31 -31 20 -44 -39 -44 -59 0 -63 4 -39 38 18 26 56
29 78 6z"/>
<path d="M3409 3495 c-57 -31 -65 -139 -14 -182 49 -43 140 -22 165 37 19 45
7 110 -25 137 -30 27 -86 30 -126 8z m101 -35 c45 -45 14 -140 -45 -140 -38 0
-65 33 -65 80 0 47 27 80 65 80 14 0 34 -9 45 -20z"/>
<path d="M3659 3495 c-57 -31 -65 -139 -14 -182 49 -43 140 -22 165 37 19 45
7 110 -25 137 -30 27 -86 30 -126 8z m101 -35 c45 -45 14 -140 -45 -140 -38 0
-65 33 -65 80 0 47 27 80 65 80 14 0 34 -9 45 -20z"/>
<path d="M3880 3400 c0 -103 1 -110 20 -110 18 0 20 7 20 73 0 85 18 122 56
114 18 -3 24 0 24 14 0 24 -36 25 -62 2 -17 -15 -18 -15 -18 0 0 10 -8 17 -20
17 -19 0 -20 -7 -20 -110z"/>
<path d="M4160 3400 c0 -103 1 -110 20 -110 18 0 20 7 20 79 0 71 2 82 22 95
55 39 78 11 78 -98 0 -69 2 -76 20 -76 18 0 20 7 20 78 0 64 4 82 18 95 10 10
25 17 33 17 30 0 39 -24 39 -107 0 -76 2 -83 20 -83 18 0 20 7 20 80 0 43 -5
91 -12 105 -15 34 -53 42 -94 20 -30 -16 -34 -16 -49 -1 -21 20 -64 21 -93 0
-20 -14 -22 -14 -22 0 0 9 -9 16 -20 16 -19 0 -20 -7 -20 -110z"/>
<path d="M4553 3498 c-28 -13 -32 -44 -5 -33 55 24 102 13 102 -25 0 -13 -11
-19 -45 -23 -53 -5 -85 -30 -85 -64 0 -53 70 -81 118 -47 20 14 22 14 22 0 0
-9 7 -16 15 -16 12 0 15 17 15 90 0 77 -3 93 -20 110 -22 22 -80 26 -117 8z
m97 -133 c0 -29 -32 -49 -66 -41 -49 13 -23 66 33 66 28 0 33 -3 33 -25z"/>
<path d="M4770 3360 c0 -143 1 -150 20 -150 18 0 20 7 20 56 0 55 0 55 22 40
31 -22 62 -20 93 7 28 24 43 85 31 132 -15 58 -76 83 -123 50 -19 -13 -22 -13
-27 0 -3 8 -12 15 -21 15 -13 0 -15 -22 -15 -150z m134 98 c32 -45 10 -138
-32 -138 -10 0 -28 7 -40 16 -18 12 -22 25 -22 64 0 39 4 52 22 64 31 22 54
20 72 -6z"/>
<path d="M5130 3400 c0 -103 1 -110 20 -110 19 0 20 7 20 110 0 103 -1 110
-20 110 -19 0 -20 -7 -20 -110z"/>
<path d="M5250 3490 c-37 -37 -23 -75 36 -101 31 -13 44 -24 44 -38 0 -26 -42
-38 -76 -22 -32 14 -34 14 -34 -4 0 -32 66 -45 115 -23 29 13 43 53 28 77 -5
9 -27 25 -49 36 -65 33 -50 83 17 58 23 -9 29 -8 29 3 0 35 -79 45 -110 14z"/>
<path d="M5540 3400 c0 -103 1 -110 20 -110 18 0 20 7 20 79 0 71 2 82 22 95
55 39 78 11 78 -98 0 -69 2 -76 20 -76 18 0 20 7 20 84 0 69 -4 88 -21 110
-24 30 -63 34 -97 10 -20 -14 -22 -14 -22 0 0 9 -9 16 -20 16 -19 0 -20 -7
-20 -110z"/>
<path d="M5819 3495 c-57 -31 -65 -139 -14 -182 49 -43 140 -22 165 37 19 45
7 110 -25 137 -30 27 -86 30 -126 8z m101 -35 c45 -45 14 -140 -45 -140 -38 0
-65 33 -65 80 0 47 27 80 65 80 14 0 34 -9 45 -20z"/>
<path d="M6310 3360 c0 -143 1 -150 20 -150 18 0 20 7 20 56 0 55 0 55 22 40
31 -22 62 -20 93 7 28 24 43 85 31 132 -15 58 -76 83 -123 50 -19 -13 -22 -13
-27 0 -3 8 -12 15 -21 15 -13 0 -15 -22 -15 -150z m134 98 c32 -45 10 -138
-32 -138 -10 0 -28 7 -40 16 -18 12 -22 25 -22 64 0 39 4 52 22 64 31 22 54
20 72 -6z"/>
<path d="M6560 3400 c0 -103 1 -110 20 -110 18 0 20 7 20 73 0 85 18 122 56
114 18 -3 24 0 24 14 0 24 -36 25 -62 2 -17 -15 -18 -15 -18 0 0 10 -8 17 -20
17 -19 0 -20 -7 -20 -110z"/>
<path d="M6763 3500 c-58 -24 -70 -143 -18 -187 41 -35 145 -26 145 13 0 12
-5 14 -17 9 -43 -19 -81 -17 -102 4 -40 40 -29 51 54 51 73 0 75 1 75 25 0 73
-65 114 -137 85z m81 -36 c31 -31 20 -44 -39 -44 -59 0 -63 4 -39 38 18 26 56
29 78 6z"/>
<path d="M6980 3490 c-37 -37 -23 -75 36 -101 31 -13 44 -24 44 -38 0 -26 -42
-38 -76 -22 -32 14 -34 14 -34 -4 0 -32 66 -45 115 -23 29 13 43 53 28 77 -5
9 -27 25 -49 36 -65 33 -50 83 17 58 23 -9 29 -8 29 3 0 35 -79 45 -110 14z"/>
<path d="M7193 3500 c-58 -24 -70 -143 -18 -187 41 -35 145 -26 145 13 0 12
-5 14 -17 9 -43 -19 -81 -17 -102 4 -40 40 -29 51 54 51 73 0 75 1 75 25 0 73
-65 114 -137 85z m81 -36 c31 -31 20 -44 -39 -44 -59 0 -63 4 -39 38 18 26 56
29 78 6z"/>
<path d="M7400 3400 c0 -103 1 -110 20 -110 18 0 20 7 20 79 0 71 2 82 22 95
55 39 78 11 78 -98 0 -69 2 -76 20 -76 18 0 20 7 20 84 0 69 -4 88 -21 110
-24 30 -63 34 -97 10 -20 -14 -22 -14 -22 0 0 9 -9 16 -20 16 -19 0 -20 -7
-20 -110z"/>
<path d="M7813 3324 c-3 -8 -1 -20 5 -26 16 -16 42 -2 42 22 0 24 -38 28 -47
4z"/>
<path d="M2620 2655 c0 -158 1 -165 20 -165 19 0 20 7 20 165 0 158 -1 165
-20 165 -19 0 -20 -7 -20 -165z"/>
<path d="M4170 2655 c0 -158 1 -165 20 -165 19 0 20 7 20 165 0 158 -1 165
-20 165 -19 0 -20 -7 -20 -165z"/>
<path d="M2370 2640 c0 -143 1 -150 20 -150 18 0 20 7 20 60 l0 60 35 0 c102
0 154 96 84 154 -26 22 -40 26 -95 26 l-64 0 0 -150z m132 103 c42 -38 6 -103
-57 -103 l-35 0 0 60 0 60 37 0 c20 0 45 -7 55 -17z"/>
<path d="M5680 2770 c0 -15 7 -20 25 -20 18 0 25 5 25 20 0 15 -7 20 -25 20
-18 0 -25 -5 -25 -20z"/>
<path d="M4730 2740 c0 -23 -4 -30 -20 -30 -11 0 -20 -7 -20 -15 0 -8 9 -15
20 -15 18 0 20 -7 20 -78 0 -90 16 -116 67 -110 38 4 44 34 6 33 l-28 0 -3 78
-3 77 31 0 c20 0 30 5 30 15 0 10 -10 15 -30 15 -27 0 -30 3 -30 30 0 23 -4
30 -20 30 -16 0 -20 -7 -20 -30z"/>
<path d="M2763 2700 c-58 -24 -70 -143 -18 -187 41 -35 145 -26 145 13 0 12
-5 14 -17 9 -43 -19 -81 -17 -102 4 -40 40 -29 51 54 51 73 0 75 1 75 25 0 73
-65 114 -137 85z m81 -36 c31 -31 20 -44 -39 -44 -59 0 -63 4 -39 38 18 26 56
29 78 6z"/>
<path d="M2983 2698 c-28 -13 -32 -44 -5 -33 55 24 102 13 102 -25 0 -13 -11
-19 -45 -23 -53 -5 -85 -30 -85 -64 0 -53 70 -81 118 -47 20 14 22 14 22 0 0
-9 7 -16 15 -16 12 0 15 17 15 90 0 77 -3 93 -20 110 -22 22 -80 26 -117 8z
m97 -133 c0 -29 -32 -49 -66 -41 -49 13 -23 66 33 66 28 0 33 -3 33 -25z"/>
<path d="M3210 2690 c-37 -37 -23 -75 36 -101 31 -13 44 -24 44 -38 0 -26 -42
-38 -76 -22 -32 14 -34 14 -34 -4 0 -32 66 -45 115 -23 29 13 43 53 28 77 -5
9 -27 25 -49 36 -65 33 -50 83 17 58 23 -9 29 -8 29 3 0 35 -79 45 -110 14z"/>
<path d="M3423 2700 c-58 -24 -70 -143 -18 -187 41 -35 145 -26 145 13 0 12
-5 14 -17 9 -43 -19 -81 -17 -102 4 -40 40 -29 51 54 51 73 0 75 1 75 25 0 73
-65 114 -137 85z m81 -36 c31 -31 20 -44 -39 -44 -59 0 -63 4 -39 38 18 26 56
29 78 6z"/>
<path d="M3750 2690 c-37 -37 -23 -75 36 -101 31 -13 44 -24 44 -38 0 -26 -42
-38 -76 -22 -32 14 -34 14 -34 -4 0 -32 66 -45 115 -23 29 13 43 53 28 77 -5
9 -27 25 -49 36 -65 33 -50 83 17 58 23 -9 29 -8 29 3 0 35 -79 45 -110 14z"/>
<path d="M3963 2700 c-58 -24 -70 -143 -18 -187 41 -35 145 -26 145 13 0 12
-5 14 -17 9 -43 -19 -81 -17 -102 4 -40 40 -29 51 54 51 73 0 75 1 75 25 0 73
-65 114 -137 85z m81 -36 c31 -31 20 -44 -39 -44 -59 0 -63 4 -39 38 18 26 56
29 78 6z"/>
<path d="M4313 2700 c-58 -24 -70 -143 -18 -187 41 -35 145 -26 145 13 0 12
-5 14 -17 9 -43 -19 -81 -17 -102 4 -40 40 -29 51 54 51 73 0 75 1 75 25 0 73
-65 114 -137 85z m81 -36 c31 -31 20 -44 -39 -44 -59 0 -63 4 -39 38 18 26 56
29 78 6z"/>
<path d="M4553 2700 c-58 -24 -70 -143 -18 -187 15 -14 39 -23 58 -23 37 0 77
24 77 46 0 18 -14 18 -30 -1 -19 -23 -66 -19 -84 7 -21 29 -20 87 0 117 17 23
52 26 97 6 12 -5 17 -3 17 9 0 31 -67 46 -117 26z"/>
<path d="M5003 2698 c-28 -13 -32 -44 -5 -33 55 24 102 13 102 -25 0 -13 -11
-19 -45 -23 -53 -5 -85 -30 -85 -64 0 -53 70 -81 118 -47 20 14 22 14 22 0 0
-9 7 -16 15 -16 12 0 15 17 15 90 0 77 -3 93 -20 110 -22 22 -80 26 -117 8z
m97 -133 c0 -29 -32 -49 -66 -41 -49 13 -23 66 33 66 28 0 33 -3 33 -25z"/>
<path d="M5229 2691 c-21 -16 -24 -29 -25 -90 -1 -39 3 -74 8 -77 5 -3 2 -14
-7 -24 -23 -25 -15 -62 15 -78 35 -18 124 -10 150 13 24 22 26 58 5 75 -9 7
-44 16 -78 19 -46 4 -63 10 -65 22 -3 14 4 16 42 12 39 -5 48 -2 71 22 23 22
26 33 22 61 -4 25 -2 34 9 34 8 0 14 7 14 15 0 24 -130 21 -161 -4z m89 -23
c7 -7 12 -21 12 -33 0 -12 -5 -26 -12 -33 -7 -7 -21 -12 -33 -12 -12 0 -26 5
-33 12 -7 7 -12 21 -12 33 0 12 5 26 12 33 7 7 21 12 33 12 12 0 26 -5 33 -12z
m16 -174 c38 -15 3 -54 -48 -54 -51 0 -71 21 -44 48 13 13 66 16 92 6z"/>
<path d="M5463 2698 c-28 -13 -32 -44 -5 -33 55 24 102 13 102 -25 0 -13 -11
-19 -45 -23 -53 -5 -85 -30 -85 -64 0 -53 70 -81 118 -47 20 14 22 14 22 0 0
-9 7 -16 15 -16 12 0 15 17 15 90 0 77 -3 93 -20 110 -22 22 -80 26 -117 8z
m97 -133 c0 -29 -32 -49 -66 -41 -49 13 -23 66 33 66 28 0 33 -3 33 -25z"/>
<path d="M5680 2600 c0 -103 1 -110 20 -110 19 0 20 7 20 110 0 103 -1 110
-20 110 -19 0 -20 -7 -20 -110z"/>
<path d="M5790 2600 c0 -103 1 -110 20 -110 18 0 20 7 20 79 0 71 2 82 22 95
55 39 78 11 78 -98 0 -69 2 -76 20 -76 18 0 20 7 20 84 0 69 -4 88 -21 110
-24 30 -63 34 -97 10 -20 -14 -22 -14 -22 0 0 9 -9 16 -20 16 -19 0 -20 -7
-20 -110z"/>
<path d="M6043 2524 c-3 -8 -1 -20 5 -26 16 -16 42 -2 42 22 0 24 -38 28 -47
4z"/>
</g>
</svg>
